:FULLY-SPECIFIED
:FORCE-ALL-JOINTS-BE-3DOF
:DEGREES
815
root 2.5707 16.443 22.8217 -10.3669 53.458 -9.75744
lfemur -27.4146 10.0579 -15.5338
ltibia 44.239 -0 0
lfoot -15.1166 0.967063 -1.75386
ltoes 19.9864 -0 0
rfemur -31.905 -12.2812 16.6402
rtibia 48.89 -0 0
rfoot -9.5008 -19.6329 1.41029
rtoes -20.2254 0 0
lowerback 5.63232 2.17534 -1.95981
upperback 1.14092 2.82951 -2.5491
thorax -1.73479 1.3948 -1.48409
lowerneck -5.88041 -5.3355 0.560665
upperneck 1.794 -7.30483 4.31515
head 1.78467 -3.49556 1.05579
lclavicle -2.98308e-15 8.08251e-15 -5.60978e-31
lhumerus -48.1984 -16.1165 89.6589
lradius 64.676 -0 0
lwrist 16.8001 0 0
lhand -9.98687 -1.61685 0.498179
lfingers 7.12502 -0 0
lthumb 15.9575 27.2135 0.332176
rclavicle -2.98308e-15 8.08251e-15 -5.60978e-31
rhumerus -32.6273 27.135 -87.7623
rradius 68.5693 -0 0
rwrist 4.71826 0 0
rhand -16.4262 -24.1351 -0.379684
rfingers 7.12502 -0 0
rthumb 9.7808 -53.7128 -0.334583
816
root 2.60588 16.4462 22.979 -10.4116 52.5844 -9.53732
lfemur -27.0728 9.94983 -15.5962
ltibia 44.0122 -0 0
lfoot -14.8567 0.238931 -1.77339
ltoes 20.1352 -0 0
rfemur -32.5131 -11.9246 16.4093
rtibia 48.7762 -0 0
rfoot -9.18306 -19.1586 1.42622
rtoes -20.0387 0 0
lowerback 5.79918 2.08426 -2.0035
upperback 1.21465 2.70306 -2.50515
thorax -1.75477 1.33118 -1.40783
lowerneck -5.90004 -5.28718 0.605811
upperneck 1.95097 -7.25099 4.2879
head 1.83603 -3.46578 1.03952
lclavicle -3.39757e-15 8.35242e-15 -6.15319e-31
lhumerus -47.9067 -16.2693 89.4541
lradius 64.456 -0 0
lwrist 16.9414 0 0
lhand -9.56612 -1.48864 0.503561
lfingers 7.12502 -0 0
lthumb 16.3617 27.3008 0.335909
rclavicle -3.39757e-15 8.35242e-15 -6.15319e-31
rhumerus -32.8838 26.3843 -86.9268
rradius 68.1426 -0 0
rwrist 4.67417 0 0
rhand -16.1481 -24.2843 -0.383574
rfingers 7.12502 -0 0
rthumb 10.0488 -53.8476 -0.338111
817
root 2.6412 16.4495 23.1371 -10.4611 51.7076 -9.31937
lfemur -26.7296 9.84218 -15.6598
ltibia 43.7846 -0 0
lfoot -14.596 -0.491504 -1.78959
ltoes 20.2839 -0 0
rfemur -33.1254 -11.5705 16.1752
rtibia 48.6633 -0 0
rfoot -8.86376 -18.6817 1.43974
rtoes -19.8518 0 0
lowerback 5.96705 1.99288 -2.04782
upperback 1.28866 2.57595 -2.4613
thorax -1.77496 1.26729 -1.33123
lowerneck -5.91973 -5.23862 0.651114
upperneck 2.10828 -7.19681 4.26075
head 1.88752 -3.43585 1.02323
lclavicle -3.81036e-15 8.62121e-15 -6.70947e-31
lhumerus -47.6129 -16.4223 89.2476
lradius 64.2355 -0 0
lwrist 17.0834 0 0
lhand -9.14308 -1.35971 0.508092
lfingers 7.12502 -0 0
lthumb 16.768 27.3886 0.339073
rclavicle -3.81036e-15 8.62121e-15 -6.70947e-31
rhumerus -33.1512 25.6328 -86.0889
rradius 67.7145 -0 0
rwrist 4.62925 0 0
rhand -15.8697 -24.434 -0.386723
rfingers 7.12502 -0 0
rthumb 10.3173 -53.9829 -0.340994
818
root 2.67664 16.4527 23.2957 -10.5151 50.8282 -9.10346
lfemur -26.3852 9.73506 -15.7245
ltibia 43.5565 -0 0
lfoot -14.3346 -1.22367 -1.80243
ltoes 20.4323 -0 0
rfemur -33.7416 -11.2191 15.9381
rtibia 48.5516 -0 0
rfoot -8.54312 -18.2023 1.45081
rtoes -19.6649 0 0
lowerback 6.13582 1.90127 -2.09278
upperback 1.3629 2.44826 -2.4176
thorax -1.79534 1.20316 -1.25434
lowerneck -5.93949 -5.18984 0.696543
upperneck 2.2658 -7.14233 4.23373
head 1.93908 -3.40577 1.00693
lclavicle -4.22059e-15 8.88862e-15 -7.27691e-31
lhumerus -47.3173 -16.5753 89.0396
lradius 64.0147 -0 0
lwrist 17.2259 0 0
lhand -8.71801 -1.23012 0.511762
lfingers 7.12502 -0 0
lthumb 17.1763 27.4767 0.341658
rclavicle -4.22059e-15 8.88862e-15 -7.27691e-31
rhumerus -33.4293 24.8811 -85.249
rradius 67.2854 -0 0
rwrist 4.58347 0 0
rhand -15.5909 -24.5841 -0.389125
rfingers 7.12502 -0 0
rthumb 10.586 -54.1185 -0.343225
819
root 2.71219 16.4559 23.4547 -10.5734 49.9467 -8.88948
lfemur -26.0397 9.62858 -15.7903
ltibia 43.3279 -0 0
lfoot -14.0728 -1.95699 -1.81186
ltoes 20.5803 -0 0
rfemur -34.3613 -10.8709 15.6983
rtibia 48.4411 -0 0
rfoot -8.22135 -17.7207 1.45939
rtoes -19.4782 0 0
lowerback 6.30541 1.8095 -2.13835
upperback 1.43734 2.32008 -2.37408
thorax -1.81591 1.13885 -1.17721
lowerneck -5.95929 -5.14088 0.742068
upperneck 2.42341 -7.08756 4.20686
head 1.99068 -3.37558 0.990652
lclavicle -4.62741e-15 9.1544e-15 -7.85366e-31
lhumerus -47.0199 -16.7282 88.8302
lradius 63.7938 -0 0
lwrist 17.3689 0 0
lhand -8.29117 -1.09997 0.514558
lfingers 7.12502 -0 0
lthumb 17.5863 27.5651 0.343659
rclavicle -4.62741e-15 9.1544e-15 -7.85366e-31
rhumerus -33.7178 24.13 -84.4073
rradius 66.8556 -0 0
rwrist 4.53679 0 0
rhand -15.3123 -24.7344 -0.390772
rfingers 7.12502 -0 0
rthumb 10.8547 -54.2544 -0.344796
820
root 2.74781 16.4591 23.6142 -10.6358 49.0638 -8.67732
lfemur -25.6935 9.52281 -15.8572
ltibia 43.0992 -0 0
lfoot -13.8108 -2.69089 -1.81786
ltoes 20.7275 -0 0
rfemur -34.9843 -10.5261 15.4561
rtibia 48.3321 -0 0
rfoot -7.89868 -17.2373 1.46547
rtoes -19.2918 0 0
lowerback 6.47571 1.71763 -2.18451
upperback 1.51191 2.19149 -2.33077
thorax -1.83665 1.07438 -1.09989
lowerneck -5.97912 -5.09177 0.787658
upperneck 2.58097 -7.03254 4.18016
head 2.04228 -3.34528 0.974391
lclavicle -5.02997e-15 9.41826e-15 -8.43777e-31
lhumerus -46.7211 -16.8811 88.6195
lradius 63.5729 -0 0
lwrist 17.5123 0 0
lhand -7.8628 -0.969323 0.516475
lfingers 7.12502 -0 0
lthumb 17.9977 27.6537 0.345069
rclavicle -5.02997e-15 9.41826e-15 -8.43777e-31
rhumerus -34.0165 23.3799 -83.564
rradius 66.4254 -0 0
rwrist 4.48921 0 0
rhand -15.0339 -24.8848 -0.391662
rfingers 7.12502 -0 0
rthumb 11.1231 -54.3904 -0.345705
821
root 2.78348 16.4623 23.7739 -10.702 48.18 -8.46689
lfemur -25.3467 9.41786 -15.9251
ltibia 42.8703 -0 0
lfoot -13.5489 -3.4248 -1.82042
ltoes 20.874 -0 0
rfemur -35.6102 -10.1853 15.2117
rtibia 48.2247 -0 0
rfoot -7.57534 -16.7523 1.46903
rtoes -19.1061 0 0
lowerback 6.64665 1.62571 -2.23125
upperback 1.58659 2.06257 -2.28773
thorax -1.85755 1.00982 -1.02245
lowerneck -5.99899 -5.04254 0.833284
upperneck 2.73837 -6.97731 4.15365
head 2.09384 -3.3149 0.958165
lclavicle -5.42741e-15 9.67996e-15 -9.02717e-31
lhumerus -46.4209 -17.0338 88.4077
lradius 63.3523 -0 0
lwrist 17.6559 0 0
lhand -7.43318 -0.838257 0.517506
lfingers 7.12502 -0 0
lthumb 18.4103 27.7426 0.345885
rclavicle -5.42741e-15 9.67996e-15 -9.02717e-31
rhumerus -34.325 22.6315 -82.7195
rradius 65.9952 -0 0
rwrist 4.4407 0 0
rhand -14.756 -25.0352 -0.391792
rfingers 7.12502 -0 0
rthumb 11.3909 -54.5264 -0.34595
